# xmcd CD Database Entry
#
# Track frame offsets:
# 150
# 30865
# 52131
# 82020
# 101143
# 126344
# 158582
# 180346
# 196236
# 217069
# 250705
# 272598
# 311568
# 344328
#
# Disc length: 4599 seconds
#
# Revision: 1
# Processed by: cddbd v1.4PL0 Copyright (c) Steve Scherf et al.
# Submitted via: tcd 2.0b
#
DISCID=c111f50e
DTITLE=Joaquin Sabina - 19 dias y 500 noches
DYEAR=1900
DGENRE=
TTITLE0=Ahora que ...
TTITLE1=19 dias y 500 noches
TTITLE2=Barbi Superstar
TTITLE3=Una canción para la magdalena
TTITLE4=Dieguitos y Mafaldas
TTITLE5=A mis 40 y 10
TTITLE6=El caso de la rubia platino
TTITLE7=Donde habita el olvido
TTITLE8=Cerrado por derribo
TTITLE9=Pero que hermosas eran
TTITLE10=De purísima y oro
TTITLE11=Como te digo una "co" te digo la "o"
TTITLE12=Noches de boda
TTITLE13=npi
EXTD=
EXTT0=
EXTT1=
EXTT2=
EXTT3=
EXTT4=
EXTT5=
EXTT6=
EXTT7=
EXTT8=
EXTT9=
EXTT10=
EXTT11=
EXTT12=
EXTT13=
PLAYORDER=
